<svg xmlns="http://www.w3.org/2000/svg" width="16.001" height="16" viewBox="0 0 16.001 16">
  <g id="Group_6" data-name="Group 6" transform="translate(-928 -3246)">
    <path id="Union_2" data-name="Union 2" d="M.146,9.209a.5.5,0,0,1,0-.707L1.99,6.658l0,0A3.338,3.338,0,0,1,2.123,2.45l2.3-2.3a.5.5,0,0,1,.707.707L2.855,3.131A2.328,2.328,0,0,0,3.1,6.378a2.384,2.384,0,0,0,3.323.258L7.964,5.093,7.175,4.3l-.862.862A.5.5,0,0,1,5.6,4.458l3-3a.5.5,0,0,1,.708.707L7.882,3.6,9.025,4.74a.5.5,0,0,1,0,.707L7.1,7.374a3.436,3.436,0,0,1-2.214.818,3.335,3.335,0,0,1-2.194-.82L.854,9.209a.5.5,0,0,1-.708,0Z" transform="translate(928 3252.646)" fill="#ed26b7"/>
    <path id="Path_13" data-name="Path 13" d="M4.544,10.544A.5.5,0,0,1,4.19,9.69l3-3A.5.5,0,0,1,7.9,7.4l-3,3a.5.5,0,0,1-.354.146" transform="translate(928 3246)" fill="#ed26b7"/>
    <path id="Union_1" data-name="Union 1" d="M4.394,9.158.164,4.928.15,4.915.128,4.891A.5.5,0,0,1,.147,4.2a.451.451,0,0,1,.058-.051L2.077,2.281a3.347,3.347,0,0,1,4.228-.152L8.288.147a.5.5,0,0,1,.707.707L7.028,2.822A3.355,3.355,0,0,1,7.057,7.2L5.1,9.158a.5.5,0,0,1-.707,0ZM2.759,3.012,1.211,4.561,4.747,8.1,6.32,6.524a2.36,2.36,0,0,0-.251-3.251,2.4,2.4,0,0,0-1.8-.824A2.3,2.3,0,0,0,2.759,3.012Z" transform="translate(934.859 3246)" fill="#ed26b7"/>
  </g>
</svg>
